<svg width="229" height="66" viewBox="0 0 229 66" fill="none" xmlns="http://www.w3.org/2000/svg">
<path d="M54.7817 42.4219L40.2496 49.4741L40.2496 58.8866L67.236 45.2478L55.4462 22.3438L23.3638 35.3492L17.2679 28.1942L25.9465 21.4769L23.5882 10.743L6.38417 26.6974L16.8171 49.6771L51.0501 34.4163L54.7817 42.4219Z" fill="#1962F8"/>
<rect x="51.9999" y="16.077" width="6" height="6" transform="rotate(-42.8045 51.9999 16.077)" fill="#1962F8"/>
<rect x="19.9999" y="4.077" width="6" height="5.60735" transform="rotate(-42.8045 19.9999 4.077)" fill="#1962F8"/>
<path d="M82.5679 48.432C81.1999 48.432 79.9399 48.204 78.7879 47.748C77.6359 47.268 76.6759 46.608 75.9079 45.768C75.1399 44.904 74.6119 43.908 74.3239 42.78L77.9599 41.304C78.3919 42.384 79.0159 43.224 79.8319 43.824C80.6719 44.424 81.6439 44.724 82.7479 44.724C83.7079 44.724 84.4519 44.508 84.9799 44.076C85.5319 43.644 85.8079 43.116 85.8079 42.492C85.8079 41.94 85.6039 41.52 85.1959 41.232C84.7879 40.944 84.3319 40.74 83.8279 40.62L80.6959 39.72C79.2559 39.312 78.1399 38.652 77.3479 37.74C76.5799 36.804 76.1959 35.688 76.1959 34.392C76.1959 33.168 76.5319 32.076 77.2039 31.116C77.8759 30.156 78.7879 29.4 79.9399 28.848C81.1159 28.272 82.4239 27.984 83.8639 27.984C85.7599 27.984 87.3799 28.452 88.7239 29.388C90.0919 30.3 90.9919 31.56 91.4239 33.168L87.7159 34.644C87.4999 33.78 87.0079 33.096 86.2399 32.592C85.4959 32.088 84.6439 31.836 83.6839 31.836C82.8439 31.836 82.1479 32.028 81.5959 32.412C81.0679 32.796 80.8039 33.3 80.8039 33.924C80.8039 34.5 81.0079 34.932 81.4159 35.22C81.8239 35.508 82.3039 35.724 82.8559 35.868L85.8799 36.804C87.3679 37.26 88.4959 37.944 89.2639 38.856C90.0559 39.744 90.4519 40.812 90.4519 42.06C90.4519 43.26 90.1159 44.34 89.4439 45.3C88.7719 46.26 87.8359 47.028 86.6359 47.604C85.4599 48.156 84.1039 48.432 82.5679 48.432ZM99.6578 48.432C98.4098 48.432 97.2938 48.228 96.3098 47.82C95.3498 47.412 94.5938 46.812 94.0418 46.02C93.4898 45.228 93.2138 44.256 93.2138 43.104C93.2138 41.856 93.5258 40.788 94.1498 39.9C94.7738 39.012 95.6378 38.292 96.7418 37.74C97.8458 37.164 99.1178 36.768 100.558 36.552L107.146 35.508L106.786 39.108L101.242 40.08C100.354 40.248 99.6098 40.56 99.0098 41.016C98.4098 41.448 98.1098 42.048 98.1098 42.816C98.1098 43.488 98.3498 43.992 98.8298 44.328C99.3338 44.664 99.9698 44.832 100.738 44.832C101.698 44.832 102.562 44.616 103.33 44.184C104.098 43.728 104.734 43.128 105.238 42.384C105.742 41.64 106.042 40.824 106.138 39.936L106.822 35.04C106.918 34.392 106.81 33.852 106.498 33.42C106.21 32.964 105.802 32.616 105.274 32.376C104.746 32.136 104.17 32.016 103.546 32.016C102.466 32.016 101.494 32.304 100.63 32.88C99.7898 33.456 99.1418 34.188 98.6858 35.076L94.9778 32.988C95.4818 31.956 96.1658 31.08 97.0298 30.36C97.9178 29.616 98.9378 29.04 100.09 28.632C101.266 28.2 102.514 27.984 103.834 27.984C105.418 27.984 106.822 28.296 108.046 28.92C109.294 29.544 110.242 30.396 110.89 31.476C111.538 32.556 111.754 33.816 111.538 35.256L109.774 48H105.274L105.742 44.652L106.93 44.688C106.33 45.528 105.658 46.224 104.914 46.776C104.17 47.328 103.354 47.736 102.466 48C101.602 48.288 100.666 48.432 99.6578 48.432ZM114.168 48L117.984 20.748H122.736L118.92 48H114.168ZM130.508 48.432C128.948 48.432 127.64 48.084 126.584 47.388C125.528 46.668 124.772 45.672 124.316 44.4C123.884 43.128 123.788 41.64 124.028 39.936L125.648 28.416H130.4L128.78 40.008C128.66 40.824 128.72 41.544 128.96 42.168C129.2 42.792 129.596 43.272 130.148 43.608C130.7 43.944 131.36 44.112 132.128 44.112C132.92 44.112 133.628 43.944 134.252 43.608C134.9 43.248 135.44 42.756 135.872 42.132C136.328 41.484 136.604 40.74 136.7 39.9L138.32 28.416H143.036L140.3 48H135.836L136.34 44.148L136.664 44.94C136.064 46.14 135.212 47.028 134.108 47.604C133.028 48.156 131.828 48.432 130.508 48.432ZM144.683 48L147.419 28.416H151.883L151.307 32.772L150.983 32.124C151.655 30.66 152.507 29.64 153.539 29.064C154.595 28.488 155.807 28.2 157.175 28.2H158.327L157.751 32.376H156.059C154.715 32.376 153.575 32.808 152.639 33.672C151.727 34.512 151.139 35.772 150.875 37.452L149.435 48H144.683ZM158.939 48L159.659 42.96H164.447L163.691 48H158.939ZM170.312 48L173.048 28.416H177.8L175.064 48H170.312ZM173.336 26.22L174.056 21.18H178.808L178.124 26.22H173.336ZM179.453 48L182.189 28.416H186.617L186.113 32.268L185.825 31.476C186.449 30.276 187.301 29.4 188.381 28.848C189.461 28.272 190.661 27.984 191.981 27.984C193.469 27.984 194.729 28.332 195.761 29.028C196.817 29.724 197.585 30.672 198.065 31.872C198.569 33.048 198.713 34.38 198.497 35.868L196.805 48H192.089L193.709 36.408C193.877 35.16 193.649 34.164 193.025 33.42C192.401 32.676 191.513 32.304 190.361 32.304C189.593 32.304 188.873 32.484 188.201 32.844C187.553 33.18 187.013 33.66 186.581 34.284C186.173 34.908 185.897 35.652 185.753 36.516L184.169 48H179.453Z" fill="#1962F8"/>
</svg>
